M48
INCH
T1C0.0118
T2C0.0157
T3C0.0197
T4C0.0320
T5C0.0394
T6C0.0512
T7C0.0945
T8C0.1850
%
G90
G05
T1
X3.5433Y-1.878
X3.5541Y-2.2947
X3.5551Y-2.3268
X3.563Y-2.4567
X3.6693Y-3.6378
X3.7441Y-1.7402
X3.7815Y-2.6695
X3.7835Y-2.0232
X3.8071Y-2.6693
X3.815Y-1.7703
X3.815Y-1.9213
X3.9528Y-1.9703
X3.9528Y-2.7087
X4.0039Y-2.1232
X4.0236Y-5.1457
X4.0423Y-2.2703
X4.0551Y-2.7087
X4.0591Y-2.6732
X4.062Y-2.3703
X4.0827Y-2.4703
X4.0906Y-5.3898
X4.1024Y-3.9764
X4.1063Y-2.5423
X4.1339Y-2.5984
X4.1468Y-2.6406
X4.1575Y-2.0236
X4.1575Y-2.5669
X4.1614Y-2.2323
X4.1614Y-1.7323
X4.1614Y-2.3228
X4.1614Y-2.437
X4.1614Y-2.5197
X4.1614Y-1.6378
X4.1614Y-2.1339
X4.2205Y-4.6102
X4.2638Y-3.9291
X4.315Y-3.6417
X4.3228Y-3.0
X4.3268Y-3.1732
X4.3425Y-2.5236
X4.4213Y-2.5236
X4.4213Y-3.2677
X4.4252Y-1.7677
X4.4252Y-4.0157
X4.4567Y-5.185
X4.7992Y-4.7598
X4.8543Y-2.1063
X4.8543Y-3.6024
X4.8543Y-4.3504
X4.8543Y-2.8583
X5.0157Y-2.0591
X5.0157Y-2.811
X5.0157Y-3.5591
X5.0157Y-4.3071
X5.0591Y-1.7677
X5.063Y-4.0157
X5.0669Y-2.5197
X5.0669Y-3.2677
X5.1693Y-3.1732
X5.1693Y-3.9528
X5.1732Y-1.6732
X5.1732Y-2.4488
X5.2283Y-5.0945
X5.3898Y-5.0512
X5.4331Y-4.7598
X5.5433Y-4.6732
X5.6024Y-3.5157
X5.6024Y-2.0079
X5.6024Y-4.2638
X5.6024Y-2.7638
X5.7638Y-1.9646
X5.7638Y-2.7165
X5.7638Y-3.4646
X5.7638Y-4.2165
X5.8071Y-2.4252
X5.811Y-1.6732
X5.811Y-3.9252
X5.8189Y-3.1732
X5.9173Y-3.8701
X5.9213Y-3.122
X5.9252Y-1.6181
X5.9291Y-2.3701
X5.9764Y-5.0039
X6.1378Y-4.9646
X6.185Y-4.6732
X6.2953Y-4.6732
X6.3543Y-2.7047
X6.3543Y-1.9528
X6.3543Y-3.4567
X6.3543Y-4.2087
X6.5157Y-1.9094
X6.5157Y-2.6614
X6.5157Y-3.4134
X6.5157Y-4.1614
X6.5591Y-2.3701
X6.563Y-1.6181
X6.5669Y-3.122
X6.5669Y-3.8701
X6.6693Y-1.6732
X6.6693Y-3.9252
X6.6732Y-2.4213
X6.6732Y-3.1732
X6.7283Y-5.0118
X6.8898Y-4.9606
X6.937Y-4.6732
X7.1024Y-4.2598
X7.1024Y-2.0079
X7.1024Y-2.7559
X7.1024Y-3.5079
X7.2638Y-1.9646
X7.2638Y-2.7126
X7.2638Y-3.4646
X7.2638Y-4.2165
X7.3071Y-2.4213
X7.3071Y-3.9252
X7.311Y-1.6732
X7.3189Y-3.1732
X7.4213Y-3.3622
X7.4213Y-4.1102
X7.4252Y-1.8622
X7.4252Y-2.6063
X7.8543Y-2.1969
X7.8543Y-3.6969
X7.8543Y-2.9409
X7.8543Y-4.4528
X8.0157Y-2.1535
X8.0157Y-2.8976
X8.0157Y-3.6535
X8.0157Y-4.4016
X8.0591Y-1.8622
X8.0591Y-2.6063
X8.0669Y-3.3622
X8.0669Y-4.1102
X8.1575Y-1.9213
X8.1693Y-4.1693
X8.1732Y-2.6654
X8.1732Y-3.4213
X8.6024Y-2.252
X8.6024Y-3.0
X8.6024Y-3.752
X8.6024Y-4.5118
X8.7638Y-2.2126
X8.7638Y-2.9567
X8.7638Y-3.7126
X8.7638Y-4.4606
X8.8071Y-1.9213
X8.8071Y-2.6654
X8.815Y-3.4213
X8.815Y-4.1693
T2
X4.0906Y-3.5236
X4.2244Y-3.5236
X4.2894Y-4.6389
X4.3563Y-4.7548
X4.437Y-2.2835
X4.437Y-2.4055
X4.437Y-3.7795
X4.437Y-3.9016
X4.5709Y-2.2835
X4.5709Y-2.4055
X4.5709Y-3.7795
X4.5709Y-3.9016
X4.811Y-4.6457
X4.9449Y-4.6457
X5.2205Y-2.1929
X5.2205Y-3.6929
X5.2598Y-2.311
X5.2598Y-3.811
X5.3543Y-2.1929
X5.3543Y-3.6929
X5.3937Y-2.311
X5.3937Y-3.811
X5.5591Y-4.5591
X5.6929Y-4.5591
X5.937Y-2.1339
X5.937Y-3.6339
X5.937Y-3.7559
X5.9409Y-2.2598
X6.0709Y-2.1339
X6.0709Y-3.6339
X6.0709Y-3.7559
X6.0748Y-2.2598
X6.311Y-4.5591
X6.4449Y-4.5591
X6.685Y-2.189
X6.685Y-2.311
X6.685Y-3.685
X6.685Y-3.811
X6.8189Y-2.189
X6.8189Y-2.311
X6.8189Y-3.685
X6.8189Y-3.811
X7.437Y-2.378
X7.437Y-2.4921
X7.437Y-3.8701
X7.437Y-3.9961
X7.5709Y-2.378
X7.5709Y-2.4921
X7.5709Y-3.8701
X7.5709Y-3.9961
X8.6654Y-2.4331
X8.6654Y-2.5551
X8.6654Y-3.9331
X8.6693Y-4.0591
X8.7992Y-2.4331
X8.7992Y-2.5551
X8.7992Y-3.9331
X8.8031Y-4.0591
T4
X3.3342Y-2.1063
X3.3342Y-2.3063
X3.3346Y-2.3898
X3.4213Y-2.3898
X3.4228Y-2.1063
X3.4228Y-2.3063
X3.6291Y-1.6232
X3.6291Y-1.7232
X3.6291Y-1.8232
X3.6291Y-1.9232
X3.6291Y-2.0232
X3.6291Y-2.1232
X3.6291Y-2.2232
X3.6291Y-2.3232
X3.6291Y-2.4232
X3.6291Y-2.5232
X3.6291Y-2.6232
X3.6291Y-2.7232
X3.6803Y-1.6703
X3.6803Y-1.7703
X3.6803Y-1.8703
X3.6803Y-1.9703
X3.6803Y-2.0703
X3.6803Y-2.1703
X3.6803Y-2.2703
X3.6803Y-2.3703
X3.6803Y-2.4703
X3.6803Y-2.5703
X3.6803Y-2.6703
X3.6803Y-2.7703
X3.8071Y-2.937
X3.9071Y-2.937
X4.0071Y-2.937
X4.1071Y-2.937
X4.2291Y-1.6232
X4.2291Y-1.7232
X4.2291Y-1.8232
X4.2291Y-1.9232
X4.2291Y-2.0232
X4.2291Y-2.1232
X4.2291Y-2.2232
X4.2291Y-2.3232
X4.2291Y-2.4232
X4.2291Y-2.5232
X4.2291Y-2.6232
X4.2291Y-2.7232
X4.2803Y-1.6703
X4.2803Y-1.7703
X4.2803Y-1.8703
X4.2803Y-1.9703
X4.2803Y-2.0703
X4.2803Y-2.1703
X4.2803Y-2.2703
X4.2803Y-2.3703
X4.2803Y-2.4703
X4.2803Y-2.5703
X4.2803Y-2.6703
X4.2803Y-2.7703
T5
X4.437Y-3.0118
X4.437Y-3.0945
X4.437Y-3.1732
T6
X3.3465Y-2.5374
X3.3465Y-2.7933
T7
X3.3858Y-3.3465
X4.252Y-3.3465
T8
X4.1339Y-4.5197
X5.1024Y-2.3465
X5.1024Y-3.8425
X8.1024Y-2.4331
X8.1024Y-3.937
T3
G00X3.3091Y-1.6555
M15
G01X3.3091Y-1.6988
M16
G05
G00X3.3091Y-1.7736
M15
G01X3.3091Y-1.8169
M16
G05
G00X3.3091Y-1.9311
M15
G01X3.3091Y-1.9744
M16
G05
G00X3.378Y-1.9902
M15
G01X3.378Y-2.0335
M16
G05
G00X3.4744Y-1.9902
M15
G01X3.4744Y-2.0335
M16
G05
G00X3.5433Y-1.6555
M15
G01X3.5433Y-1.6988
M16
G05
G00X3.5433Y-1.7736
M15
G01X3.5433Y-1.8169
M16
G05
G00X3.5433Y-1.9311
M15
G01X3.5433Y-1.9744
M16
G05
M30
