%TF.GenerationSoftware,KiCad,Pcbnew,7.0.11-2.fc39*%
%TF.CreationDate,2024-05-11T16:30:22+02:00*%
%TF.ProjectId,Lily58_Pro,4c696c79-3538-45f5-9072-6f2e6b696361,rev?*%
%TF.SameCoordinates,Original*%
%TF.FileFunction,Paste,Top*%
%TF.FilePolarity,Positive*%
%FSLAX46Y46*%
G04 Gerber Fmt 4.6, Leading zero omitted, Abs format (unit mm)*
G04 Created by KiCad (PCBNEW 7.0.11-2.fc39) date 2024-05-11 16:30:22*
%MOMM*%
%LPD*%
G01*
G04 APERTURE LIST*
G04 Aperture macros list*
%AMRotRect*
0 Rectangle, with rotation*
0 The origin of the aperture is its center*
0 $1 length*
0 $2 width*
0 $3 Rotation angle, in degrees counterclockwise*
0 Add horizontal line*
21,1,$1,$2,0,0,$3*%
G04 Aperture macros list end*
%ADD10RotRect,0.700000X1.500000X300.000000*%
%ADD11RotRect,2.400000X2.400000X120.000000*%
%ADD12RotRect,2.500000X2.500000X120.000000*%
%ADD13RotRect,1.800000X2.000000X120.000000*%
%ADD14RotRect,2.000000X2.000000X120.000000*%
%ADD15R,0.700000X1.500000*%
%ADD16R,2.400000X2.400000*%
%ADD17R,2.500000X2.500000*%
%ADD18R,1.800000X2.000000*%
%ADD19R,2.000000X2.000000*%
%ADD20R,1.143000X0.635000*%
%ADD21R,0.381000X0.381000*%
G04 APERTURE END LIST*
D10*
%TO.C,SW26*%
X105816730Y-118214617D03*
X111415064Y-133111216D03*
D11*
X106549409Y-119523655D03*
D12*
X110649705Y-131705575D03*
D13*
X98490450Y-127525129D03*
D14*
X105845706Y-135864806D03*
%TD*%
D15*
%TO.C,SW29*%
X160900000Y-118650000D03*
X176600000Y-121250000D03*
D16*
X162400000Y-118670000D03*
D17*
X175000000Y-121209999D03*
D18*
X165300000Y-129650000D03*
D19*
X176200000Y-127450000D03*
%TD*%
D15*
%TO.C,SW28*%
X141800000Y-118650000D03*
X157500000Y-121250000D03*
D16*
X143300000Y-118670000D03*
D17*
X155900000Y-121209999D03*
D18*
X146200000Y-129650000D03*
D19*
X157100000Y-127450000D03*
%TD*%
D15*
%TO.C,SW27*%
X122800000Y-120900000D03*
X138500000Y-123500000D03*
D16*
X124300000Y-120920000D03*
D17*
X136900000Y-123459999D03*
D18*
X127200000Y-131900000D03*
D19*
X138100000Y-129700000D03*
%TD*%
D15*
%TO.C,SW25*%
X94200000Y-92400000D03*
X109900000Y-95000000D03*
D16*
X95700000Y-92420000D03*
D17*
X108300000Y-94959999D03*
D18*
X98600000Y-103400000D03*
D19*
X109500000Y-101200000D03*
%TD*%
D15*
%TO.C,SW24*%
X208550000Y-105900000D03*
X224250000Y-108500000D03*
D16*
X210050000Y-105920000D03*
D17*
X222650000Y-108459999D03*
D18*
X212950000Y-116900000D03*
D19*
X223850000Y-114700000D03*
%TD*%
D15*
%TO.C,SW23*%
X189500000Y-104400000D03*
X205200000Y-107000000D03*
D16*
X191000000Y-104420000D03*
D17*
X203600000Y-106959999D03*
D18*
X193900000Y-115400000D03*
D19*
X204800000Y-113200000D03*
%TD*%
D15*
%TO.C,SW22*%
X170400000Y-99700000D03*
X186100000Y-102300000D03*
D16*
X171900000Y-99720000D03*
D17*
X184500000Y-102259999D03*
D18*
X174800000Y-110700000D03*
D19*
X185700000Y-108500000D03*
%TD*%
D15*
%TO.C,SW21*%
X151400000Y-98300000D03*
X167100000Y-100900000D03*
D16*
X152900000Y-98320000D03*
D17*
X165500000Y-100859999D03*
D18*
X155800000Y-109300000D03*
D19*
X166700000Y-107100000D03*
%TD*%
D15*
%TO.C,SW20*%
X132300000Y-99700000D03*
X148000000Y-102300000D03*
D16*
X133800000Y-99720000D03*
D17*
X146400000Y-102259999D03*
D18*
X136700000Y-110700000D03*
D19*
X147600000Y-108500000D03*
%TD*%
D15*
%TO.C,SW19*%
X113300000Y-102000000D03*
X129000000Y-104600000D03*
D16*
X114800000Y-102020000D03*
D17*
X127400000Y-104559999D03*
D18*
X117700000Y-113000000D03*
D19*
X128600000Y-110800000D03*
%TD*%
D15*
%TO.C,SW18*%
X208500000Y-86900000D03*
X224200000Y-89500000D03*
D16*
X210000000Y-86920000D03*
D17*
X222600000Y-89459999D03*
D18*
X212900000Y-97900000D03*
D19*
X223800000Y-95700000D03*
%TD*%
D15*
%TO.C,SW17*%
X189500000Y-85400000D03*
X205200000Y-88000000D03*
D16*
X191000000Y-85420000D03*
D17*
X203600000Y-87959999D03*
D18*
X193900000Y-96400000D03*
D19*
X204800000Y-94200000D03*
%TD*%
D15*
%TO.C,SW16*%
X170400000Y-80600000D03*
X186100000Y-83200000D03*
D16*
X171900000Y-80620000D03*
D17*
X184500000Y-83159999D03*
D18*
X174800000Y-91600000D03*
D19*
X185700000Y-89400000D03*
%TD*%
D15*
%TO.C,SW15*%
X151400000Y-79300000D03*
X167100000Y-81900000D03*
D16*
X152900000Y-79320000D03*
D17*
X165500000Y-81859999D03*
D18*
X155800000Y-90300000D03*
D19*
X166700000Y-88100000D03*
%TD*%
D15*
%TO.C,SW14*%
X132300000Y-80600000D03*
X148000000Y-83200000D03*
D16*
X133800000Y-80620000D03*
D17*
X146400000Y-83159999D03*
D18*
X136700000Y-91600000D03*
D19*
X147600000Y-89400000D03*
%TD*%
D15*
%TO.C,SW13*%
X113300000Y-83000000D03*
X129000000Y-85600000D03*
D16*
X114800000Y-83020000D03*
D17*
X127400000Y-85559999D03*
D18*
X117700000Y-94000000D03*
D19*
X128600000Y-91800000D03*
%TD*%
D15*
%TO.C,SW12*%
X208500000Y-67700000D03*
X224200000Y-70300000D03*
D16*
X210000000Y-67720000D03*
D17*
X222600000Y-70259999D03*
D18*
X212900000Y-78700000D03*
D19*
X223800000Y-76500000D03*
%TD*%
D15*
%TO.C,SW11*%
X189500000Y-66200000D03*
X205200000Y-68800000D03*
D16*
X191000000Y-66220000D03*
D17*
X203600000Y-68759999D03*
D18*
X193900000Y-77200000D03*
D19*
X204800000Y-75000000D03*
%TD*%
D15*
%TO.C,SW10*%
X170400000Y-61500000D03*
X186100000Y-64100000D03*
D16*
X171900000Y-61520000D03*
D17*
X184500000Y-64059999D03*
D18*
X174800000Y-72500000D03*
D19*
X185700000Y-70300000D03*
%TD*%
D15*
%TO.C,SW9*%
X151400000Y-60200000D03*
X167100000Y-62800000D03*
D16*
X152900000Y-60220000D03*
D17*
X165500000Y-62759999D03*
D18*
X155800000Y-71200000D03*
D19*
X166700000Y-69000000D03*
%TD*%
D15*
%TO.C,SW8*%
X132300000Y-61600000D03*
X148000000Y-64200000D03*
D16*
X133800000Y-61620000D03*
D17*
X146400000Y-64159999D03*
D18*
X136700000Y-72600000D03*
D19*
X147600000Y-70400000D03*
%TD*%
D15*
%TO.C,SW7*%
X113300000Y-64000000D03*
X129000000Y-66600000D03*
D16*
X114800000Y-64020000D03*
D17*
X127400000Y-66559999D03*
D18*
X117700000Y-75000000D03*
D19*
X128600000Y-72800000D03*
%TD*%
D15*
%TO.C,SW6*%
X208500000Y-48800000D03*
X224200000Y-51400000D03*
D16*
X210000000Y-48820000D03*
D17*
X222600000Y-51359999D03*
D18*
X212900000Y-59800000D03*
D19*
X223800000Y-57600000D03*
%TD*%
D15*
%TO.C,SW5*%
X189500000Y-47300000D03*
X205200000Y-49900000D03*
D16*
X191000000Y-47320000D03*
D17*
X203600000Y-49859999D03*
D18*
X193900000Y-58300000D03*
D19*
X204800000Y-56100000D03*
%TD*%
D15*
%TO.C,SW4*%
X170400000Y-42500000D03*
X186100000Y-45100000D03*
D16*
X171900000Y-42520000D03*
D17*
X184500000Y-45059999D03*
D18*
X174800000Y-53500000D03*
D19*
X185700000Y-51300000D03*
%TD*%
D15*
%TO.C,SW3*%
X151400000Y-41110000D03*
X167100000Y-43710000D03*
D16*
X152900000Y-41130000D03*
D17*
X165500000Y-43669999D03*
D18*
X155800000Y-52110000D03*
D19*
X166700000Y-49910000D03*
%TD*%
D15*
%TO.C,SW2*%
X132300000Y-42500000D03*
X148000000Y-45100000D03*
D16*
X133800000Y-42520000D03*
D17*
X146400000Y-45059999D03*
D18*
X136700000Y-53500000D03*
D19*
X147600000Y-51300000D03*
%TD*%
D15*
%TO.C,SW1*%
X113300000Y-44900000D03*
X129000000Y-47500000D03*
D16*
X114800000Y-44920000D03*
D17*
X127400000Y-47459999D03*
D18*
X117700000Y-55900000D03*
D19*
X128600000Y-53700000D03*
%TD*%
D20*
%TO.C,JP1*%
X104300000Y-68799620D03*
X104300000Y-69800380D03*
%TD*%
%TO.C,JP2*%
X101700000Y-69800380D03*
X101700000Y-68799620D03*
%TD*%
%TO.C,JP3*%
X99200000Y-68799620D03*
X99200000Y-69800380D03*
%TD*%
%TO.C,JP4*%
X96700000Y-69800380D03*
X96700000Y-68799620D03*
%TD*%
D21*
%TO.C,W1*%
X89000000Y-60700000D03*
D20*
X89000000Y-60199620D03*
X89000000Y-61200380D03*
%TD*%
M02*
