M48
INCH
T1C0.0039
T2C0.0472
T3C0.0669
T4C0.0748
T5C0.1181
T6C0.1575
%
G90
G05
T1
X3.8415Y-3.737
X4.1427Y-3.737
X4.1465Y-4.8188
X4.2971Y-5.0796
X4.5935Y-1.8669
X4.5935Y-2.6189
X4.5935Y-3.3669
X4.5935Y-4.115
X4.8947Y-1.8669
X4.8947Y-2.6189
X4.8947Y-3.3669
X4.8947Y-4.115
X4.9675Y-4.8591
X5.2687Y-4.8591
X5.3415Y-1.7724
X5.3415Y-2.5244
X5.3415Y-3.2724
X5.3415Y-4.0244
X5.6427Y-1.7724
X5.6427Y-2.5244
X5.6427Y-3.2724
X5.6427Y-4.0244
X5.7156Y-4.7705
X6.0167Y-4.7705
X6.0935Y-1.7177
X6.0935Y-2.4693
X6.0935Y-3.2213
X6.0935Y-3.9693
X6.3947Y-1.7177
X6.3947Y-2.4693
X6.3947Y-3.2213
X6.3947Y-3.9693
X6.4675Y-4.7705
X6.7687Y-4.7705
X6.8415Y-1.7724
X6.8415Y-2.5205
X6.8415Y-3.2724
X6.8415Y-4.0244
X7.1427Y-1.7724
X7.1427Y-2.5205
X7.1427Y-3.2724
X7.1427Y-4.0244
X7.5935Y-1.9614
X7.5935Y-2.7055
X7.5935Y-3.4614
X7.5935Y-4.2094
X7.8947Y-1.9614
X7.8947Y-2.7055
X7.8947Y-3.4614
X7.8947Y-4.2094
X8.3415Y-2.0205
X8.3415Y-2.7646
X8.3415Y-3.5205
X8.3435Y-4.2685
X8.6427Y-2.0205
X8.6427Y-2.7646
X8.6427Y-3.5205
X8.6447Y-4.2685
T2
X3.3917Y-1.6063
X3.3917Y-1.8819
X3.4606Y-1.6063
X3.4606Y-1.8819
T3
X3.7921Y-3.8386
X4.0339Y-4.8268
X4.1921Y-3.8386
X4.2339Y-5.1732
X4.5441Y-1.9685
X4.5441Y-2.7205
X4.5441Y-3.4685
X4.5441Y-4.2165
X4.9181Y-4.9606
X4.9441Y-1.9685
X4.9441Y-2.7205
X4.9441Y-3.4685
X4.9441Y-4.2165
X5.2921Y-1.874
X5.2921Y-2.626
X5.2921Y-3.374
X5.2921Y-4.126
X5.3181Y-4.9606
X5.6661Y-4.872
X5.6921Y-1.874
X5.6921Y-2.626
X5.6921Y-3.374
X5.6921Y-4.126
X6.0441Y-1.8193
X6.0441Y-2.5709
X6.0441Y-3.3228
X6.0441Y-4.0709
X6.0661Y-4.872
X6.4181Y-4.872
X6.4441Y-1.8193
X6.4441Y-2.5709
X6.4441Y-3.3228
X6.4441Y-4.0709
X6.7921Y-1.874
X6.7921Y-2.622
X6.7921Y-3.374
X6.7921Y-4.126
X6.8181Y-4.872
X7.1921Y-1.874
X7.1921Y-2.622
X7.1921Y-3.374
X7.1921Y-4.126
X7.5441Y-2.063
X7.5441Y-2.8071
X7.5441Y-3.563
X7.5441Y-4.311
X7.9441Y-2.063
X7.9441Y-2.8071
X7.9441Y-3.563
X7.9441Y-4.311
X8.2921Y-2.122
X8.2921Y-2.8661
X8.2921Y-3.622
X8.2941Y-4.3701
X8.6921Y-2.122
X8.6921Y-2.8661
X8.6921Y-3.622
X8.6941Y-4.3701
T4
X3.7756Y-3.8386
X4.0256Y-4.8125
X4.2087Y-3.8386
X4.2421Y-5.1875
X4.5276Y-1.9685
X4.5276Y-2.7205
X4.5276Y-3.4685
X4.5276Y-4.2165
X4.9016Y-4.9606
X4.9606Y-1.9685
X4.9606Y-2.7205
X4.9606Y-3.4685
X4.9606Y-4.2165
X5.2756Y-1.874
X5.2756Y-2.626
X5.2756Y-3.374
X5.2756Y-4.126
X5.3346Y-4.9606
X5.6496Y-4.872
X5.7087Y-1.874
X5.7087Y-2.626
X5.7087Y-3.374
X5.7087Y-4.126
X6.0276Y-1.8193
X6.0276Y-2.5709
X6.0276Y-3.3228
X6.0276Y-4.0709
X6.0827Y-4.872
X6.4016Y-4.872
X6.4606Y-1.8193
X6.4606Y-2.5709
X6.4606Y-3.3228
X6.4606Y-4.0709
X6.7756Y-1.874
X6.7756Y-2.622
X6.7756Y-3.374
X6.7756Y-4.126
X6.8346Y-4.872
X7.2087Y-1.874
X7.2087Y-2.622
X7.2087Y-3.374
X7.2087Y-4.126
X7.5276Y-2.063
X7.5276Y-2.8071
X7.5276Y-3.563
X7.5276Y-4.311
X7.9606Y-2.063
X7.9606Y-2.8071
X7.9606Y-3.563
X7.9606Y-4.311
X8.2756Y-2.122
X8.2756Y-2.8661
X8.2756Y-3.622
X8.2776Y-4.3701
X8.7087Y-2.122
X8.7087Y-2.8661
X8.7087Y-3.622
X8.7106Y-4.3701
T5
X3.7953Y-3.9843
X3.8421Y-3.7386
X3.8921Y-3.6386
X3.9093Y-4.9024
X3.9327Y-5.1161
X3.9921Y-4.0709
X4.0921Y-3.6386
X4.1061Y-5.2433
X4.1421Y-3.7386
X4.1421Y-3.7386
X4.1455Y-4.8201
X4.189Y-3.9843
X4.2571Y-4.8134
X4.2955Y-5.0799
X4.2955Y-5.0799
X4.3571Y-4.9866
X4.5472Y-2.1142
X4.5472Y-2.8661
X4.5472Y-3.6142
X4.5472Y-4.3622
X4.5941Y-1.8685
X4.5941Y-2.6205
X4.5941Y-3.3685
X4.5941Y-4.1165
X4.6441Y-1.7685
X4.6441Y-2.5205
X4.6441Y-3.2685
X4.6441Y-4.0165
X4.7441Y-2.2008
X4.7441Y-2.9528
X4.7441Y-3.7008
X4.7441Y-4.4488
X4.8441Y-1.7685
X4.8441Y-2.5205
X4.8441Y-3.2685
X4.8441Y-4.0165
X4.8941Y-1.8685
X4.8941Y-1.8685
X4.8941Y-2.6205
X4.8941Y-2.6205
X4.8941Y-3.3685
X4.8941Y-3.3685
X4.8941Y-4.1165
X4.8941Y-4.1165
X4.9213Y-5.1063
X4.9409Y-2.1142
X4.9409Y-2.8661
X4.9409Y-3.6142
X4.9409Y-4.3622
X4.9681Y-4.8606
X5.0181Y-4.7606
X5.1181Y-5.1929
X5.2181Y-4.7606
X5.2681Y-4.8606
X5.2681Y-4.8606
X5.2953Y-2.0197
X5.2953Y-2.7717
X5.2953Y-3.5197
X5.2953Y-4.2717
X5.315Y-5.1063
X5.3421Y-1.774
X5.3421Y-2.526
X5.3421Y-3.274
X5.3421Y-4.026
X5.3921Y-1.674
X5.3921Y-2.426
X5.3921Y-3.174
X5.3921Y-3.926
X5.4921Y-2.1063
X5.4921Y-2.8583
X5.4921Y-3.6063
X5.4921Y-4.3583
X5.5921Y-1.674
X5.5921Y-2.426
X5.5921Y-3.174
X5.5921Y-3.926
X5.6421Y-1.774
X5.6421Y-1.774
X5.6421Y-2.526
X5.6421Y-2.526
X5.6421Y-3.274
X5.6421Y-3.274
X5.6421Y-4.026
X5.6421Y-4.026
X5.6693Y-5.0177
X5.689Y-2.0197
X5.689Y-2.7717
X5.689Y-3.5197
X5.689Y-4.2717
X5.7161Y-4.772
X5.7661Y-4.672
X5.8661Y-5.1043
X5.9661Y-4.672
X6.0161Y-4.772
X6.0161Y-4.772
X6.0472Y-1.965
X6.0472Y-2.7165
X6.0472Y-3.4685
X6.0472Y-4.2165
X6.063Y-5.0177
X6.0941Y-1.7193
X6.0941Y-2.4709
X6.0941Y-3.2228
X6.0941Y-3.9709
X6.1441Y-1.6193
X6.1441Y-2.3709
X6.1441Y-3.1228
X6.1441Y-3.8709
X6.2441Y-2.0516
X6.2441Y-2.8031
X6.2441Y-3.5551
X6.2441Y-4.3031
X6.3441Y-1.6193
X6.3441Y-2.3709
X6.3441Y-3.1228
X6.3441Y-3.8709
X6.3941Y-1.7193
X6.3941Y-1.7193
X6.3941Y-2.4709
X6.3941Y-2.4709
X6.3941Y-3.2228
X6.3941Y-3.2228
X6.3941Y-3.9709
X6.3941Y-3.9709
X6.4213Y-5.0177
X6.4409Y-1.965
X6.4409Y-2.7165
X6.4409Y-3.4685
X6.4409Y-4.2165
X6.4681Y-4.772
X6.5181Y-4.672
X6.6181Y-5.1043
X6.7181Y-4.672
X6.7681Y-4.772
X6.7681Y-4.772
X6.7953Y-2.0197
X6.7953Y-2.7677
X6.7953Y-3.5197
X6.7953Y-4.2717
X6.815Y-5.0177
X6.8421Y-1.774
X6.8421Y-2.522
X6.8421Y-3.274
X6.8421Y-4.026
X6.8921Y-1.674
X6.8921Y-2.422
X6.8921Y-3.174
X6.8921Y-3.926
X6.9921Y-2.1063
X6.9921Y-2.8543
X6.9921Y-3.6063
X6.9921Y-4.3583
X7.0921Y-1.674
X7.0921Y-2.422
X7.0921Y-3.174
X7.0921Y-3.926
X7.1421Y-1.774
X7.1421Y-1.774
X7.1421Y-2.522
X7.1421Y-2.522
X7.1421Y-3.274
X7.1421Y-3.274
X7.1421Y-4.026
X7.1421Y-4.026
X7.189Y-2.0197
X7.189Y-2.7677
X7.189Y-3.5197
X7.189Y-4.2717
X7.5472Y-2.2087
X7.5472Y-2.9528
X7.5472Y-3.7087
X7.5472Y-4.4567
X7.5941Y-1.963
X7.5941Y-2.7071
X7.5941Y-3.463
X7.5941Y-4.211
X7.6441Y-1.863
X7.6441Y-2.6071
X7.6441Y-3.363
X7.6441Y-4.111
X7.7441Y-2.2953
X7.7441Y-3.0394
X7.7441Y-3.7953
X7.7441Y-4.5433
X7.8441Y-1.863
X7.8441Y-2.6071
X7.8441Y-3.363
X7.8441Y-4.111
X7.8941Y-1.963
X7.8941Y-1.963
X7.8941Y-2.7071
X7.8941Y-2.7071
X7.8941Y-3.463
X7.8941Y-3.463
X7.8941Y-4.211
X7.8941Y-4.211
X7.9409Y-2.2087
X7.9409Y-2.9528
X7.9409Y-3.7087
X7.9409Y-4.4567
X8.2953Y-2.2677
X8.2953Y-3.0118
X8.2953Y-3.7677
X8.2972Y-4.5157
X8.3421Y-2.022
X8.3421Y-2.7661
X8.3421Y-3.522
X8.3441Y-4.2701
X8.3921Y-1.922
X8.3921Y-2.6661
X8.3921Y-3.422
X8.3941Y-4.1701
X8.4921Y-2.3543
X8.4921Y-3.0984
X8.4921Y-3.8543
X8.4941Y-4.6024
X8.5921Y-1.922
X8.5921Y-2.6661
X8.5921Y-3.422
X8.5941Y-4.1701
X8.6421Y-2.022
X8.6421Y-2.022
X8.6421Y-2.7661
X8.6421Y-2.7661
X8.6421Y-3.522
X8.6421Y-3.522
X8.6441Y-4.2701
X8.6441Y-4.2701
X8.689Y-2.2677
X8.689Y-3.0118
X8.689Y-3.7677
X8.6909Y-4.5157
T6
X3.9921Y-3.8386
X4.1339Y-5.0
X4.7441Y-1.9685
X4.7441Y-2.7205
X4.7441Y-3.4685
X4.7441Y-4.2165
X5.1181Y-4.9606
X5.4921Y-1.874
X5.4921Y-2.626
X5.4921Y-3.374
X5.4921Y-4.126
X5.8661Y-4.872
X6.2441Y-1.8193
X6.2441Y-2.5709
X6.2441Y-3.3228
X6.2441Y-4.0709
X6.6181Y-4.872
X6.9921Y-1.874
X6.9921Y-2.622
X6.9921Y-3.374
X6.9921Y-4.126
X7.7441Y-2.063
X7.7441Y-2.8071
X7.7441Y-3.563
X7.7441Y-4.311
X8.4921Y-2.122
X8.4921Y-2.8661
X8.4921Y-3.622
X8.4941Y-4.3701
M30
